M48
; DRILL file {KiCad 9.0.5} date 2026-03-16T23:36:56+0900
; FORMAT={-:-/ absolute / metric / decimal}
; #@! TF.CreationDate,2026-03-16T23:36:56+09:00
; #@! TF.GenerationSoftware,Kicad,Pcbnew,9.0.5
; #@! TF.FileFunction,Plated,1,6,PTH
FMAT,2
METRIC
; #@! TA.AperFunction,Plated,PTH,ViaDrill
T1C0.300
; #@! TA.AperFunction,Plated,PTH,ComponentDrill
T2C0.750
; #@! TA.AperFunction,Plated,PTH,ComponentDrill
T3C0.800
; #@! TA.AperFunction,Plated,PTH,ComponentDrill
T4C0.850
; #@! TA.AperFunction,Plated,PTH,ComponentDrill
T5C1.000
; #@! TA.AperFunction,Plated,PTH,ComponentDrill
T6C1.016
; #@! TA.AperFunction,Plated,PTH,ComponentDrill
T7C1.100
; #@! TA.AperFunction,Plated,PTH,ComponentDrill
T8C1.200
; #@! TA.AperFunction,Plated,PTH,ComponentDrill
T9C1.300
; #@! TA.AperFunction,Plated,PTH,ComponentDrill
T10C1.400
; #@! TA.AperFunction,Plated,PTH,ComponentDrill
T11C1.600
; #@! TA.AperFunction,Plated,PTH,ComponentDrill
T12C2.700
%
G90
G05
T1
X95.11Y-61.524
X95.11Y-64.064
X95.364Y-94.544
X95.618Y-88.702
X95.618Y-110.8
X95.668Y-82.516
X95.668Y-100.941
X96.634Y-106.99
X97.38Y-96.93
X97.396Y-103.18
X98.412Y-85.654
X98.412Y-91.242
X98.768Y-83.916
X98.92Y-61.524
X100.952Y-114.61
X101.714Y-103.18
X101.968Y-88.702
X102.73Y-61.524
X103.492Y-103.18
X105.016Y-85.654
X105.016Y-91.242
X105.186Y-97.702
X106.54Y-85.908
X106.54Y-89.464
X106.588Y-83.416
X106.668Y-93.017
X107.858Y-83.416
X108.128Y-79.616
X108.572Y-73.97
X108.968Y-96.816
X109.08Y-69.144
X109.334Y-80.828
X109.334Y-85.908
X109.334Y-91.242
X109.588Y-75.748
X109.668Y-103.066
X109.668Y-107.753
X109.778Y-79.616
X110.398Y-83.416
X110.858Y-85.908
X110.858Y-89.464
X111.55Y-73.65
X112.382Y-85.908
X112.382Y-104.196
X112.636Y-80.574
X112.636Y-91.242
X112.89Y-61.524
X112.89Y-115.372
X112.938Y-83.416
X112.938Y-93.017
X113.652Y-78.034
X114.16Y-109.53
X114.33Y-71.04
X115.176Y-67.874
X115.176Y-73.716
X115.268Y-81.516
X115.368Y-87.716
X115.368Y-88.666
X115.478Y-83.416
X115.668Y-96.816
X115.938Y-80.574
X116.748Y-93.017
X117.657Y-87.716
X117.657Y-89.616
X117.668Y-99.416
X117.716Y-104.196
X118.018Y-83.416
X118.018Y-93.017
X118.478Y-100.64
X118.732Y-106.736
X118.896Y-61.288
X120.51Y-78.034
X120.51Y-79.05
X121.018Y-89.21
X121.272Y-91.496
X121.78Y-62.54
X123.558Y-109.53
X124.32Y-74.986
X124.828Y-73.716
X124.828Y-94.544
X124.828Y-96.068
X125.844Y-115.118
X127.114Y-64.572
X127.368Y-103.688
X128.892Y-100.386
X129.146Y-64.064
X129.568Y-69.216
X129.908Y-96.068
X129.908Y-113.086
X130.67Y-72.192
X130.924Y-68.382
X131.432Y-106.736
X132.268Y-71.916
X132.448Y-70.668
X132.468Y-67.816
X133.768Y-70.716
X136.258Y-100.64
X136.258Y-110.292
X136.512Y-115.372
X137.274Y-66.604
X138.036Y-94.798
X139.052Y-96.576
X139.56Y-73.716
X140.322Y-66.858
X140.576Y-106.736
X141.338Y-109.784
X142.1Y-65.08
X142.608Y-81.336
X142.862Y-88.956
X143.37Y-100.386
X145.91Y-68.636
X145.91Y-76.256
X145.91Y-81.844
X146.418Y-115.118
X147.18Y-71.176
X147.434Y-106.99
X147.688Y-78.542
X147.688Y-88.956
X147.942Y-85.4
X148.168Y-108.266
X148.958Y-96.576
X148.958Y-99.37
X148.958Y-102.672
X149.466Y-112.324
X149.974Y-85.908
X151.752Y-68.636
X152.168Y-107.416
X152.768Y-76.256
X152.768Y-82.098
X152.768Y-114.864
X153.276Y-61.524
X155.054Y-89.21
X155.054Y-96.83
X155.054Y-101.91
X155.562Y-72.7
X155.562Y-79.05
X157.594Y-110.546
X158.61Y-61.524
X158.864Y-68.636
X158.864Y-76.256
X158.864Y-82.098
X160.642Y-105.466
X160.642Y-114.864
X162.42Y-82.098
X162.674Y-110.8
T2
X136.053Y-68.016
X143.673Y-68.016
X150.208Y-108.246
X150.208Y-109.516
X150.208Y-110.786
T3
X101.346Y-70.866
X101.346Y-80.01
X103.632Y-70.866
X103.632Y-80.01
X105.918Y-70.866
X105.918Y-73.152
X105.918Y-75.438
X105.918Y-77.724
X105.918Y-80.01
X145.713Y-85.581
X145.713Y-88.121
X145.713Y-90.661
X145.713Y-93.201
X145.713Y-95.741
X145.713Y-98.281
X145.713Y-100.821
X145.713Y-103.361
X153.333Y-85.581
X153.333Y-88.121
X153.333Y-90.661
X153.333Y-93.201
X153.333Y-95.741
X153.333Y-98.281
X153.333Y-100.821
X153.333Y-103.361
T4
X121.668Y-100.516
X121.768Y-106.716
X121.768Y-112.816
X124.168Y-100.516
X124.268Y-106.716
X124.268Y-112.816
X126.668Y-100.516
X126.768Y-106.716
X126.768Y-112.816
X132.968Y-112.916
X135.468Y-112.916
X137.968Y-112.916
T5
X100.068Y-88.116
X100.068Y-93.116
X109.028Y-72.516
X109.028Y-77.516
X114.028Y-75.016
X118.1Y-67.96
X118.1Y-70.5
X120.64Y-67.96
X120.64Y-70.5
X123.18Y-67.96
X123.18Y-70.5
X125.72Y-67.96
X125.72Y-70.5
X137.528Y-70.616
X140.068Y-70.616
X142.608Y-70.616
X145.168Y-107.376
X145.168Y-109.916
X151.868Y-72.016
X151.868Y-79.616
X156.693Y-85.341
X156.693Y-87.881
X156.693Y-90.421
X156.693Y-92.961
X156.693Y-95.501
X156.693Y-98.041
X156.693Y-100.581
X156.693Y-103.121
X159.233Y-85.341
X159.233Y-87.881
X159.233Y-90.421
X159.233Y-92.961
X159.233Y-95.501
X159.233Y-98.041
X159.233Y-100.581
X159.233Y-103.121
X161.773Y-85.341
X161.773Y-87.881
X161.773Y-90.421
X161.773Y-92.961
X161.773Y-95.501
X161.773Y-98.041
X161.773Y-100.581
X161.773Y-103.121
T6
X102.8Y-63.143
X102.8Y-65.683
X105.34Y-63.143
X105.34Y-65.683
X107.88Y-63.143
X107.88Y-65.683
X110.42Y-63.143
X110.42Y-65.683
X112.96Y-63.143
X112.96Y-65.683
X115.5Y-63.143
X115.5Y-65.683
X118.04Y-63.143
X118.04Y-65.683
X120.581Y-63.143
X120.581Y-65.683
X123.12Y-63.143
X123.12Y-65.683
X125.66Y-63.143
X125.66Y-65.683
X128.201Y-63.143
X128.201Y-65.683
X130.74Y-63.143
X130.74Y-65.683
X133.28Y-63.143
X133.28Y-65.683
X135.82Y-63.143
X135.82Y-65.683
X138.361Y-63.143
X138.361Y-65.683
X140.9Y-63.143
X140.9Y-65.683
X143.44Y-63.143
X143.44Y-65.683
X145.981Y-63.143
X145.981Y-65.683
X148.52Y-63.143
X148.52Y-65.683
X151.06Y-63.143
X151.06Y-65.683
T7
X143.258Y-114.116
X150.878Y-114.116
T8
X133.868Y-104.016
X138.868Y-104.016
T9
X103.068Y-84.016
X103.068Y-96.716
T11
X115.57Y-101.64
X115.57Y-114.34
T12
X99.368Y-100.816
X99.368Y-105.816
X104.368Y-112.916
X105.768Y-100.916
X105.768Y-105.916
X109.368Y-112.916
T10
G00X96.774Y-74.645
M15
G01X96.774Y-73.945
M16
G05
G00X96.774Y-79.217
M15
G01X96.774Y-78.517
M16
G05
G00X97.567Y-70.866
M15
G01X98.267Y-70.866
M16
G05
M30
