%TF.GenerationSoftware,KiCad,Pcbnew,9.0.5*%
%TF.CreationDate,2026-03-16T23:36:59+09:00*%
%TF.ProjectId,Nexus,4e657875-732e-46b6-9963-61645f706362,ver 1.0*%
%TF.SameCoordinates,Original*%
%TF.FileFunction,Soldermask,Top*%
%TF.FilePolarity,Negative*%
%FSLAX46Y46*%
G04 Gerber Fmt 4.6, Leading zero omitted, Abs format (unit mm)*
G04 Created by KiCad (PCBNEW 9.0.5) date 2026-03-16 23:36:59*
%MOMM*%
%LPD*%
G01*
G04 APERTURE LIST*
G04 Aperture macros list*
%AMRoundRect*
0 Rectangle with rounded corners*
0 $1 Rounding radius*
0 $2 $3 $4 $5 $6 $7 $8 $9 X,Y pos of 4 corners*
0 Add a 4 corners polygon primitive as box body*
4,1,4,$2,$3,$4,$5,$6,$7,$8,$9,$2,$3,0*
0 Add four circle primitives for the rounded corners*
1,1,$1+$1,$2,$3*
1,1,$1+$1,$4,$5*
1,1,$1+$1,$6,$7*
1,1,$1+$1,$8,$9*
0 Add four rect primitives between the rounded corners*
20,1,$1+$1,$2,$3,$4,$5,0*
20,1,$1+$1,$4,$5,$6,$7,0*
20,1,$1+$1,$6,$7,$8,$9,0*
20,1,$1+$1,$8,$9,$2,$3,0*%
G04 Aperture macros list end*
%ADD10R,1.700000X1.700000*%
%ADD11C,1.700000*%
%ADD12RoundRect,0.218750X0.256250X-0.218750X0.256250X0.218750X-0.256250X0.218750X-0.256250X-0.218750X0*%
%ADD13RoundRect,0.200000X0.200000X0.275000X-0.200000X0.275000X-0.200000X-0.275000X0.200000X-0.275000X0*%
%ADD14RoundRect,0.250001X-0.949999X-0.949999X0.949999X-0.949999X0.949999X0.949999X-0.949999X0.949999X0*%
%ADD15C,2.400000*%
%ADD16R,2.000000X2.000000*%
%ADD17C,2.000000*%
%ADD18RoundRect,0.250000X-0.750000X0.750000X-0.750000X-0.750000X0.750000X-0.750000X0.750000X0.750000X0*%
%ADD19RoundRect,0.200000X-0.200000X-0.275000X0.200000X-0.275000X0.200000X0.275000X-0.200000X0.275000X0*%
%ADD20RoundRect,0.760000X1.140000X1.140000X-1.140000X1.140000X-1.140000X-1.140000X1.140000X-1.140000X0*%
%ADD21C,4.000000*%
%ADD22RoundRect,0.200000X0.275000X-0.200000X0.275000X0.200000X-0.275000X0.200000X-0.275000X-0.200000X0*%
%ADD23RoundRect,0.150000X0.587500X0.150000X-0.587500X0.150000X-0.587500X-0.150000X0.587500X-0.150000X0*%
%ADD24RoundRect,0.250000X0.600000X0.675000X-0.600000X0.675000X-0.600000X-0.675000X0.600000X-0.675000X0*%
%ADD25O,1.700000X1.850000*%
%ADD26RoundRect,0.225000X0.225000X0.250000X-0.225000X0.250000X-0.225000X-0.250000X0.225000X-0.250000X0*%
%ADD27R,1.500000X1.050000*%
%ADD28O,1.500000X1.050000*%
%ADD29RoundRect,0.102000X0.571500X-0.571500X0.571500X0.571500X-0.571500X0.571500X-0.571500X-0.571500X0*%
%ADD30RoundRect,0.102000X0.952500X-2.095500X0.952500X2.095500X-0.952500X2.095500X-0.952500X-2.095500X0*%
%ADD31RoundRect,0.102000X2.095500X-0.952500X2.095500X0.952500X-2.095500X0.952500X-2.095500X-0.952500X0*%
%ADD32RoundRect,0.250000X0.550000X0.550000X-0.550000X0.550000X-0.550000X-0.550000X0.550000X-0.550000X0*%
%ADD33C,1.600000*%
%ADD34RoundRect,0.218750X0.218750X0.256250X-0.218750X0.256250X-0.218750X-0.256250X0.218750X-0.256250X0*%
%ADD35RoundRect,0.760000X-1.140000X1.140000X-1.140000X-1.140000X1.140000X-1.140000X1.140000X1.140000X0*%
%ADD36RoundRect,0.250001X-0.499999X-0.499999X0.499999X-0.499999X0.499999X0.499999X-0.499999X0.499999X0*%
%ADD37C,1.500000*%
%ADD38R,0.508000X1.701800*%
%ADD39RoundRect,0.250000X1.350000X-1.350000X1.350000X1.350000X-1.350000X1.350000X-1.350000X-1.350000X0*%
%ADD40C,3.200000*%
%ADD41RoundRect,0.200000X-0.275000X0.200000X-0.275000X-0.200000X0.275000X-0.200000X0.275000X0.200000X0*%
%ADD42RoundRect,0.102000X-0.762000X-0.762000X0.762000X-0.762000X0.762000X0.762000X-0.762000X0.762000X0*%
%ADD43C,1.728000*%
%ADD44RoundRect,0.218750X-0.256250X0.218750X-0.256250X-0.218750X0.256250X-0.218750X0.256250X0.218750X0*%
%ADD45RoundRect,0.249999X-0.850001X-0.850001X0.850001X-0.850001X0.850001X0.850001X-0.850001X0.850001X0*%
%ADD46C,2.200000*%
%ADD47RoundRect,0.250000X-1.050000X1.050000X-1.050000X-1.050000X1.050000X-1.050000X1.050000X1.050000X0*%
%ADD48C,2.600000*%
%ADD49R,1.560000X1.560000*%
%ADD50C,1.560000*%
G04 APERTURE END LIST*
D10*
%TO.C,J14*%
X159233000Y-85341000D03*
D11*
X159233000Y-87881000D03*
X159233000Y-90421000D03*
X159233000Y-92961000D03*
X159233000Y-95501000D03*
X159233000Y-98041000D03*
X159233000Y-100581000D03*
X159233000Y-103121000D03*
%TD*%
D10*
%TO.C,J13*%
X137528000Y-70616000D03*
D11*
X140068000Y-70616000D03*
X142608000Y-70616000D03*
%TD*%
D12*
%TO.C,D2*%
X109668000Y-107753500D03*
X109668000Y-106178500D03*
%TD*%
D13*
%TO.C,R3*%
X98818000Y-83916000D03*
X97168000Y-83916000D03*
%TD*%
D10*
%TO.C,J15*%
X156693000Y-85341000D03*
D11*
X156693000Y-87881000D03*
X156693000Y-90421000D03*
X156693000Y-92961000D03*
X156693000Y-95501000D03*
X156693000Y-98041000D03*
X156693000Y-100581000D03*
X156693000Y-103121000D03*
%TD*%
D14*
%TO.C,C4*%
X133868000Y-104016000D03*
D15*
X138868000Y-104016000D03*
%TD*%
D16*
%TO.C,BZ1*%
X151868000Y-79616000D03*
D17*
X151868000Y-72016000D03*
%TD*%
D18*
%TO.C,C1*%
X100068000Y-88116000D03*
D17*
X100068000Y-93116000D03*
%TD*%
D19*
%TO.C,R15*%
X95378000Y-68072000D03*
X97028000Y-68072000D03*
%TD*%
D20*
%TO.C,J1*%
X109368000Y-112916000D03*
D21*
X104368000Y-112916000D03*
%TD*%
D22*
%TO.C,R9*%
X113168000Y-98766000D03*
X113168000Y-97116000D03*
%TD*%
D23*
%TO.C,Q4*%
X108168000Y-96666000D03*
X108168000Y-94766000D03*
X106293000Y-95716000D03*
%TD*%
D24*
%TO.C,J7*%
X126768000Y-112816000D03*
D25*
X124268000Y-112816000D03*
X121768000Y-112816000D03*
%TD*%
D26*
%TO.C,C2*%
X98768000Y-82516000D03*
X97218000Y-82516000D03*
%TD*%
D27*
%TO.C,Q5*%
X150208000Y-108246000D03*
D28*
X150208000Y-109516000D03*
X150208000Y-110786000D03*
%TD*%
D29*
%TO.C,MD1*%
X101346000Y-80010000D03*
D30*
X96774000Y-78867000D03*
X96774000Y-74295000D03*
D31*
X97917000Y-70866000D03*
D29*
X101346000Y-70866000D03*
X105918000Y-70866000D03*
X105918000Y-75438000D03*
X105918000Y-77724000D03*
X105918000Y-80010000D03*
X103632000Y-80010000D03*
X103632000Y-70866000D03*
X105918000Y-73152000D03*
%TD*%
D32*
%TO.C,U4*%
X153333000Y-103361000D03*
D33*
X153333000Y-100821000D03*
X153333000Y-98281000D03*
X153333000Y-95741000D03*
X153333000Y-93201000D03*
X153333000Y-90661000D03*
X153333000Y-88121000D03*
X153333000Y-85581000D03*
X145713000Y-85581000D03*
X145713000Y-88121000D03*
X145713000Y-90661000D03*
X145713000Y-93201000D03*
X145713000Y-95741000D03*
X145713000Y-98281000D03*
X145713000Y-100821000D03*
X145713000Y-103361000D03*
%TD*%
D22*
%TO.C,R8*%
X110068000Y-96566000D03*
X110068000Y-94916000D03*
%TD*%
D34*
%TO.C,D6*%
X100040000Y-68070000D03*
X98465000Y-68070000D03*
%TD*%
D22*
%TO.C,R1*%
X95668000Y-105691000D03*
X95668000Y-104041000D03*
%TD*%
D10*
%TO.C,J17*%
X125720000Y-70500000D03*
D11*
X123180000Y-70500000D03*
X120640000Y-70500000D03*
X118100000Y-70500000D03*
%TD*%
D35*
%TO.C,J3*%
X99368000Y-100816000D03*
D21*
X99368000Y-105816000D03*
%TD*%
D36*
%TO.C,D8*%
X136053000Y-68016000D03*
D37*
X143673000Y-68016000D03*
%TD*%
D10*
%TO.C,J10*%
X145168000Y-109916000D03*
D11*
X145168000Y-107376000D03*
%TD*%
D10*
%TO.C,J12*%
X161773000Y-85341000D03*
D11*
X161773000Y-87881000D03*
X161773000Y-90421000D03*
X161773000Y-92961000D03*
X161773000Y-95501000D03*
X161773000Y-98041000D03*
X161773000Y-100581000D03*
X161773000Y-103121000D03*
%TD*%
D38*
%TO.C,U1*%
X118018000Y-83416000D03*
X116748000Y-83416000D03*
X115478000Y-83416000D03*
X114208000Y-83416000D03*
X112938000Y-83416000D03*
X111668000Y-83416000D03*
X110398000Y-83416000D03*
X109128000Y-83416000D03*
X107858000Y-83416000D03*
X106588000Y-83416000D03*
X106588000Y-93017200D03*
X107858000Y-93017200D03*
X109128000Y-93017200D03*
X110398000Y-93017200D03*
X111668000Y-93017200D03*
X112938000Y-93017200D03*
X114208000Y-93017200D03*
X115478000Y-93017200D03*
X116748000Y-93017200D03*
X118018000Y-93017200D03*
%TD*%
D24*
%TO.C,J4*%
X137968000Y-112916000D03*
D25*
X135468000Y-112916000D03*
X132968000Y-112916000D03*
%TD*%
D39*
%TO.C,D5*%
X115570000Y-114340000D03*
D40*
X115570000Y-101640000D03*
%TD*%
D10*
%TO.C,J16*%
X125720000Y-67960000D03*
D11*
X123180000Y-67960000D03*
X120640000Y-67960000D03*
X118100000Y-67960000D03*
%TD*%
D13*
%TO.C,R12*%
X111668000Y-98716000D03*
X110018000Y-98716000D03*
%TD*%
D41*
%TO.C,R2*%
X109668000Y-103066000D03*
X109668000Y-104716000D03*
%TD*%
D24*
%TO.C,J6*%
X126768000Y-106716000D03*
D25*
X124268000Y-106716000D03*
X121768000Y-106716000D03*
%TD*%
D42*
%TO.C,U3*%
X102800500Y-65683500D03*
D43*
X102800500Y-63143500D03*
X105340500Y-65683500D03*
X105340500Y-63143500D03*
X107880500Y-65683500D03*
X107880500Y-63143500D03*
X110420500Y-65683500D03*
X110420500Y-63143500D03*
X112960500Y-65683500D03*
X112960500Y-63143500D03*
X115500500Y-65683500D03*
X115500500Y-63143500D03*
X118040500Y-65683500D03*
X118040500Y-63143500D03*
X120580500Y-65683500D03*
X120580500Y-63143500D03*
X123120500Y-65683500D03*
X123120500Y-63143500D03*
X125660500Y-65683500D03*
X125660500Y-63143500D03*
X128200500Y-65683500D03*
X128200500Y-63143500D03*
X130740500Y-65683500D03*
X130740500Y-63143500D03*
X133280500Y-65683500D03*
X133280500Y-63143500D03*
X135820500Y-65683500D03*
X135820500Y-63143500D03*
X138360500Y-65683500D03*
X138360500Y-63143500D03*
X140900500Y-65683500D03*
X140900500Y-63143500D03*
X143440500Y-65683500D03*
X143440500Y-63143500D03*
X145980500Y-65683500D03*
X145980500Y-63143500D03*
X148520500Y-65683500D03*
X148520500Y-63143500D03*
X151060500Y-65683500D03*
X151060500Y-63143500D03*
%TD*%
D44*
%TO.C,D1*%
X95668000Y-100941000D03*
X95668000Y-102516000D03*
%TD*%
%TO.C,D4*%
X95668000Y-82516000D03*
X95668000Y-84091000D03*
%TD*%
D24*
%TO.C,J5*%
X126668000Y-100516000D03*
D25*
X124168000Y-100516000D03*
X121668000Y-100516000D03*
%TD*%
D22*
%TO.C,R5*%
X117518000Y-96666000D03*
X117518000Y-95016000D03*
%TD*%
D35*
%TO.C,J2*%
X105768000Y-100916000D03*
D21*
X105768000Y-105916000D03*
%TD*%
D23*
%TO.C,Q1*%
X115668000Y-96816000D03*
X115668000Y-94916000D03*
X113793000Y-95866000D03*
%TD*%
D45*
%TO.C,D7*%
X143258000Y-114116000D03*
D46*
X150878000Y-114116000D03*
%TD*%
D47*
%TO.C,D3*%
X103068000Y-84016000D03*
D48*
X103068000Y-96716000D03*
%TD*%
D49*
%TO.C,RV1*%
X109028000Y-72516000D03*
D50*
X114028000Y-75016000D03*
X109028000Y-77516000D03*
%TD*%
M02*
