%TF.GenerationSoftware,KiCad,Pcbnew,9.0.5*%
%TF.CreationDate,2026-03-16T23:36:59+09:00*%
%TF.ProjectId,Nexus,4e657875-732e-46b6-9963-61645f706362,ver 1.0*%
%TF.SameCoordinates,Original*%
%TF.FileFunction,Paste,Top*%
%TF.FilePolarity,Positive*%
%FSLAX46Y46*%
G04 Gerber Fmt 4.6, Leading zero omitted, Abs format (unit mm)*
G04 Created by KiCad (PCBNEW 9.0.5) date 2026-03-16 23:36:59*
%MOMM*%
%LPD*%
G01*
G04 APERTURE LIST*
G04 Aperture macros list*
%AMRoundRect*
0 Rectangle with rounded corners*
0 $1 Rounding radius*
0 $2 $3 $4 $5 $6 $7 $8 $9 X,Y pos of 4 corners*
0 Add a 4 corners polygon primitive as box body*
4,1,4,$2,$3,$4,$5,$6,$7,$8,$9,$2,$3,0*
0 Add four circle primitives for the rounded corners*
1,1,$1+$1,$2,$3*
1,1,$1+$1,$4,$5*
1,1,$1+$1,$6,$7*
1,1,$1+$1,$8,$9*
0 Add four rect primitives between the rounded corners*
20,1,$1+$1,$2,$3,$4,$5,0*
20,1,$1+$1,$4,$5,$6,$7,0*
20,1,$1+$1,$6,$7,$8,$9,0*
20,1,$1+$1,$8,$9,$2,$3,0*%
G04 Aperture macros list end*
%ADD10RoundRect,0.218750X0.256250X-0.218750X0.256250X0.218750X-0.256250X0.218750X-0.256250X-0.218750X0*%
%ADD11RoundRect,0.200000X0.200000X0.275000X-0.200000X0.275000X-0.200000X-0.275000X0.200000X-0.275000X0*%
%ADD12RoundRect,0.200000X-0.200000X-0.275000X0.200000X-0.275000X0.200000X0.275000X-0.200000X0.275000X0*%
%ADD13RoundRect,0.200000X0.275000X-0.200000X0.275000X0.200000X-0.275000X0.200000X-0.275000X-0.200000X0*%
%ADD14RoundRect,0.150000X0.587500X0.150000X-0.587500X0.150000X-0.587500X-0.150000X0.587500X-0.150000X0*%
%ADD15RoundRect,0.225000X0.225000X0.250000X-0.225000X0.250000X-0.225000X-0.250000X0.225000X-0.250000X0*%
%ADD16RoundRect,0.218750X0.218750X0.256250X-0.218750X0.256250X-0.218750X-0.256250X0.218750X-0.256250X0*%
%ADD17R,0.508000X1.701800*%
%ADD18RoundRect,0.200000X-0.275000X0.200000X-0.275000X-0.200000X0.275000X-0.200000X0.275000X0.200000X0*%
%ADD19RoundRect,0.218750X-0.256250X0.218750X-0.256250X-0.218750X0.256250X-0.218750X0.256250X0.218750X0*%
G04 APERTURE END LIST*
D10*
%TO.C,D2*%
X109668000Y-107753500D03*
X109668000Y-106178500D03*
%TD*%
D11*
%TO.C,R3*%
X98818000Y-83916000D03*
X97168000Y-83916000D03*
%TD*%
D12*
%TO.C,R15*%
X95378000Y-68072000D03*
X97028000Y-68072000D03*
%TD*%
D13*
%TO.C,R9*%
X113168000Y-98766000D03*
X113168000Y-97116000D03*
%TD*%
D14*
%TO.C,Q4*%
X108168000Y-96666000D03*
X108168000Y-94766000D03*
X106293000Y-95716000D03*
%TD*%
D15*
%TO.C,C2*%
X98768000Y-82516000D03*
X97218000Y-82516000D03*
%TD*%
D13*
%TO.C,R8*%
X110068000Y-96566000D03*
X110068000Y-94916000D03*
%TD*%
D16*
%TO.C,D6*%
X100040000Y-68070000D03*
X98465000Y-68070000D03*
%TD*%
D13*
%TO.C,R1*%
X95668000Y-105691000D03*
X95668000Y-104041000D03*
%TD*%
D17*
%TO.C,U1*%
X118018000Y-83416000D03*
X116748000Y-83416000D03*
X115478000Y-83416000D03*
X114208000Y-83416000D03*
X112938000Y-83416000D03*
X111668000Y-83416000D03*
X110398000Y-83416000D03*
X109128000Y-83416000D03*
X107858000Y-83416000D03*
X106588000Y-83416000D03*
X106588000Y-93017200D03*
X107858000Y-93017200D03*
X109128000Y-93017200D03*
X110398000Y-93017200D03*
X111668000Y-93017200D03*
X112938000Y-93017200D03*
X114208000Y-93017200D03*
X115478000Y-93017200D03*
X116748000Y-93017200D03*
X118018000Y-93017200D03*
%TD*%
D11*
%TO.C,R12*%
X111668000Y-98716000D03*
X110018000Y-98716000D03*
%TD*%
D18*
%TO.C,R2*%
X109668000Y-103066000D03*
X109668000Y-104716000D03*
%TD*%
D19*
%TO.C,D1*%
X95668000Y-100941000D03*
X95668000Y-102516000D03*
%TD*%
%TO.C,D4*%
X95668000Y-82516000D03*
X95668000Y-84091000D03*
%TD*%
D13*
%TO.C,R5*%
X117518000Y-96666000D03*
X117518000Y-95016000D03*
%TD*%
D14*
%TO.C,Q1*%
X115668000Y-96816000D03*
X115668000Y-94916000D03*
X113793000Y-95866000D03*
%TD*%
M02*
